<svg xmlns="http://www.w3.org/2000/svg" xmlns:xlink="http://www.w3.org/1999/xlink" version="1.1" x="0px" y="0px" viewBox="0 0 100 125" enable-background="new 0 0 100 100" xml:space="preserve"><path fill="#000000" d="M83.197,71.255l16.591,4.735l-8.184-14.768l-6.391-5.981l13.831,3.013l-7.095-11.22l-5.855-4.195  l9.155-3.146l-14.455-5.349l8.02-4.882l-14.967-4.073l-1.749-0.185l6.982-5.478l-15.016-0.439c0,0,5.617-5.108,5.745-5.065  c0.111,0.036-10.612-0.929-10.612-0.929l-9.911,3.568l3.642-6.869l-11.251,2.412l-6.071,4.579l-0.228-1.249l0.769-5.998  l-9.618,3.391l-4.249,5.744l-2.982,9.877l-5.927,4.055v4.95L0.212,49.963c0,0,5.898,8.415,5.94,8.456  c0.04,0.042,7.094,0.248,7.094,0.248l0.165,4.619l3.095-4.619l5.404-0.042l3.505,4.29l-5.032,4.206h-6.847l-2.723-3.794  l-0.124,3.794l-1.98,0.248l0.715,8.043l1.844,3.672l1.546-2.435l2.949,4.251c0,0,1.073-3.879,1.237-3.838  c0.166,0.041,4.001,4.744,4.001,4.744l0.909-4.538l2.35,1.28l3.548-4.786c0,0,8.027-3.874,8.156-3.876l15.646,19.579l20.275-8.396  l21.386,9.193L83.197,71.255z"/><text x="0" y="115" fill="#000000" font-size="5px" font-weight="bold" font-family="'Helvetica Neue', Helvetica, Arial-Unicode, Arial, Sans-serif">Created by m. turan ercan</text><text x="0" y="120" fill="#000000" font-size="5px" font-weight="bold" font-family="'Helvetica Neue', Helvetica, Arial-Unicode, Arial, Sans-serif">from the Noun Project</text></svg>